<svg xmlns="http://www.w3.org/2000/svg" width="640" height="640">
<g>
<path fill="#692036" d="M360.4 33.7c24.7 14.5 49.3 265.8 30.6 276C372.3 320 82.6 341.3 75.9 320c-6.8-21.2 1.8-152.7 11-167.5 10.7-17.2 24.6-20.2 24.6-20.2S97 154.4 96.2 169.5c-.8 6-5.9 91.7 2.6 110.5 8.4 18.7 57.8 21.4 155.4 4.4 97.7-17 105.3-15 105.3-45.6 0-30.5-4.6-149.7-14.4-162.6-13.6-18-28.2-14.4-47.6-12-20.4 2.7-48.4 6-95 16.2-46.8 10.2-86.7 16.1-102 16.1-15.3 0 235.3-77.3 260-62.8z"/>
<path fill="#007689" d="M439.4 444c-73 0-376.3 5.2-417.9-10.1-41.6-15.4 7.2-49 18.7-60.4 11.4-11.5 35.7-28 41.6-28 6 0 198.2 1.1 310-5.2a238 238 0 0 1 65.8 55.3c76.4-2 217.8 42.9 47.6 74.5-279.6 52-158.4 93.9 46.2 75.1 1.1-.3 8.6-1.5 10.1-1.8 11.4-2.4 23-1.5 27.7.2 14.5 5.4 15.6 6 36.2 19.4 20.6 13.5 6.2 42.7-9.1 45-8.8 1.2-18-3.5-45-24.6-17.7-13.7-19.9-21.7-19.9-28.3v-5.5c-220.2 21-325.8-31.9-46.2-83.9 170.1-31.7 6-69.2-44.9-66.6 17.2 24 18 45-20.9 45z"/>
</g>
</svg>
